# xmcd CD database file
#
# Track frame offsets:
#	150
#	26687
#	47612
#	64262
#	101162
#	127150
#	146012
#	174512
#	197687
#	217712
#	225737
#
# Disc length: 3383 seconds
#
# Revision: 2
# Processed by: cddbd v1.5PL3 Copyright (c) Steve Scherf et al.
# Submitted via: CDex 1.50
#
DISCID=9e0d350b
DTITLE=Christy Doran - What A Band
DYEAR=1992
DGENRE=Jazz
TTITLE0=Solomutations
TTITLE1=She Walked Through The Fair
TTITLE2=Slap
TTITLE3=Swichs,No Cuts
TTITLE4=Somitime You Win,Somitime
TTITLE5=Big Heart
TTITLE6=In The Corner Of The Eye
TTITLE7=Another Collage
TTITLE8=For Marianne
TTITLE9=Chord
TTITLE10=Follwing Quasar
EXTD=YEAR: 1992
EXTT0=
EXTT1=
EXTT2=
EXTT3=
EXTT4=
EXTT5=
EXTT6=
EXTT7=
EXTT8=
EXTT9=
EXTT10=
PLAYORDER=
